<?xml version="1.0" standalone="no"?>
<svg xmlns:xlink="http://www.w3.org/1999/xlink" id="wave" style="transform:rotate(0deg); transition: 0.3s" viewBox="0 0 1440 380" version="1.1" xmlns="http://www.w3.org/2000/svg"><defs><linearGradient id="sw-gradient-0" x1="0" x2="0" y1="1" y2="0"><stop stop-color="rgba(255, 189.006, 167.811, 1)" offset="0%"/><stop stop-color="rgba(241.659, 15.775, 81.293, 1)" offset="100%"/></linearGradient></defs><path style="transform:translate(0, 0px); opacity:1" fill="url(#sw-gradient-0)" d="M0,152L120,164.7C240,177,480,203,720,209C960,215,1200,203,1440,177.3C1680,152,1920,114,2160,120.3C2400,127,2640,177,2880,164.7C3120,152,3360,76,3600,57C3840,38,4080,76,4320,120.3C4560,165,4800,215,5040,253.3C5280,291,5520,317,5760,297.7C6000,279,6240,215,6480,164.7C6720,114,6960,76,7200,50.7C7440,25,7680,13,7920,25.3C8160,38,8400,76,8640,126.7C8880,177,9120,241,9360,259.7C9600,279,9840,253,10080,202.7C10320,152,10560,76,10800,63.3C11040,51,11280,101,11520,126.7C11760,152,12000,152,12240,145.7C12480,139,12720,127,12960,158.3C13200,190,13440,266,13680,253.3C13920,241,14160,139,14400,95C14640,51,14880,63,15120,63.3C15360,63,15600,51,15840,44.3C16080,38,16320,38,16560,38C16800,38,17040,38,17160,38L17280,38L17280,380L17160,380C17040,380,16800,380,16560,380C16320,380,16080,380,15840,380C15600,380,15360,380,15120,380C14880,380,14640,380,14400,380C14160,380,13920,380,13680,380C13440,380,13200,380,12960,380C12720,380,12480,380,12240,380C12000,380,11760,380,11520,380C11280,380,11040,380,10800,380C10560,380,10320,380,10080,380C9840,380,9600,380,9360,380C9120,380,8880,380,8640,380C8400,380,8160,380,7920,380C7680,380,7440,380,7200,380C6960,380,6720,380,6480,380C6240,380,6000,380,5760,380C5520,380,5280,380,5040,380C4800,380,4560,380,4320,380C4080,380,3840,380,3600,380C3360,380,3120,380,2880,380C2640,380,2400,380,2160,380C1920,380,1680,380,1440,380C1200,380,960,380,720,380C480,380,240,380,120,380L0,380Z"/></svg>